<svg xmlns="http://www.w3.org/2000/svg" width="53.75" height="64" viewBox="0 0 53.75 64">
  <g id="study-at-du" transform="translate(-41)">
    <circle id="Ellipse_165" data-name="Ellipse 165" cx="10.625" cy="10.625" r="10.625" transform="translate(57.25)" fill="#ce54ff"/>
    <path id="Path_3949" data-name="Path 3949" d="M161.573,181.515a14.345,14.345,0,0,1-15.615,0,21.854,21.854,0,0,0-6.8,4.152l14.6,5.477,14.6-5.477A21.851,21.851,0,0,0,161.573,181.515Z" transform="translate(-85.891 -158.826)" fill="#9d35c7"/>
    <path id="Path_3950" data-name="Path 3950" d="M414.125,310h-1.25A1.875,1.875,0,0,0,411,311.875v5a1.875,1.875,0,0,0,1.875,1.875h1.25a4.375,4.375,0,0,0,0-8.75Z" transform="translate(-323.75 -271.25)" fill="#9d35c7"/>
    <path id="Path_3951" data-name="Path 3951" d="M81.807,231.938A1.875,1.875,0,0,0,81,233.479v4.174h.625a5.631,5.631,0,0,1,5.625,5.625v5a5.631,5.631,0,0,1-5.625,5.625H81v3.951a1.875,1.875,0,0,0,1.217,1.756L101,266.653v-28.38l-17.467-6.55A1.874,1.874,0,0,0,81.807,231.938Z" transform="translate(-35 -202.653)" fill="#ce54ff"/>
    <path id="Path_3952" data-name="Path 3952" d="M284.75,248.278v-5a5.631,5.631,0,0,1,5.625-5.625H291v-4.174a1.875,1.875,0,0,0-2.533-1.756L271,238.273v28.38l18.783-7.044A1.875,1.875,0,0,0,291,257.854V253.9h-.625A5.631,5.631,0,0,1,284.75,248.278Z" transform="translate(-201.25 -202.653)" fill="#ce54ff"/>
    <path id="Path_3953" data-name="Path 3953" d="M48.5,316.875v-5A1.875,1.875,0,0,0,46.625,310h-1.25a4.375,4.375,0,0,0,0,8.75h1.25A1.875,1.875,0,0,0,48.5,316.875Z" transform="translate(0 -271.25)" fill="#9d35c7"/>
  </g>
</svg>
