<svg xmlns="http://www.w3.org/2000/svg" width="73.186" height="64" viewBox="0 0 73.186 64">
  <g id="working-with-du" transform="translate(0 -32.133)">
    <path id="Path_3927" data-name="Path 3927" d="M83.445,257.381h44l3.061-13.772A2.144,2.144,0,0,0,128.409,241H82.477a2.144,2.144,0,0,0-2.093,2.609Zm22-8.191a2.144,2.144,0,1,1-2.144,2.144A2.145,2.145,0,0,1,105.443,249.191Z" transform="translate(-68.85 -179.011)" fill="#9d35c7"/>
    <circle id="Ellipse_163" data-name="Ellipse 163" cx="10.259" cy="10.259" r="10.259" transform="translate(26.335 32.133)" fill="#ce54ff"/>
    <path id="Path_3928" data-name="Path 3928" d="M169.61,175.667h-9.187a13.606,13.606,0,0,0-10.581,5.051h30.349a13.606,13.606,0,0,0-10.581-5.051Z" transform="translate(-128.423 -123.017)" fill="#9d35c7"/>
    <path id="Path_3929" data-name="Path 3929" d="M71.042,385.6H2.144A2.144,2.144,0,0,0,0,387.744v9.186a2.144,2.144,0,0,0,2.144,2.144h68.9a2.144,2.144,0,0,0,2.144-2.144v-9.186A2.144,2.144,0,0,0,71.042,385.6Z" transform="translate(0 -302.942)" fill="#ce54ff"/>
  </g>
</svg>
